<?xml version="1.0" encoding="utf-8"?>
<!-- Generator: Adobe Illustrator 26.0.1, SVG Export Plug-In . SVG Version: 6.00 Build 0)  -->
<svg version="1.1" id="Calque_1" xmlns="http://www.w3.org/2000/svg" xmlns:xlink="http://www.w3.org/1999/xlink" x="0px" y="0px"
	 viewBox="0 0 181.92 80" style="enable-background:new 0 0 181.92 80;" xml:space="preserve">
<style type="text/css">
	.st0{fill:#52524C;}
	.st1{fill:url(#SVGID_1_);}
	.st2{fill:url(#SVGID_00000165205660059031627400000003513553863046907810_);}
	.st3{fill:url(#SVGID_00000085957262622196154760000015551696938074224316_);}
	.st4{fill:#BFBEBF;}
	.st5{fill:url(#SVGID_00000014596731142788766650000012660289824686461092_);}
	.st6{fill:url(#SVGID_00000003066850661104061090000006668996882601565089_);}
	.st7{fill:#FFFFFF;}
	.st8{fill:url(#SVGID_00000178163891687339170520000006014795929791698057_);}
	.st9{fill:url(#SVGID_00000182506407482159615410000012977759299941574288_);}
	.st10{fill:url(#SVGID_00000142897325324967448870000014934684198017061543_);}
	.st11{fill:url(#SVGID_00000108311323255462885370000008955830741393368232_);}
	.st12{fill:url(#SVGID_00000147920292060004674980000014036249741043095693_);}
</style>
<rect x="-414.55" y="-85.2" class="st0" width="250" height="80"/>
<g>
	<g>
		<g>
			<linearGradient id="SVGID_1_" gradientUnits="userSpaceOnUse" x1="-30.1754" y1="-44.296" x2="21.8145" y2="-44.296">
				<stop  offset="0.0102" style="stop-color:#242D5A"/>
				<stop  offset="0.2207" style="stop-color:#FFFFFF"/>
				<stop  offset="0.2837" style="stop-color:#E4F3FB"/>
				<stop  offset="0.4208" style="stop-color:#ADDDF3"/>
				<stop  offset="0.5547" style="stop-color:#80CAEC"/>
				<stop  offset="0.6825" style="stop-color:#5DBBE7"/>
				<stop  offset="0.8024" style="stop-color:#44B1E3"/>
				<stop  offset="0.9115" style="stop-color:#35AAE1"/>
				<stop  offset="1" style="stop-color:#30A8E0"/>
			</linearGradient>
			<path class="st1" d="M21.26-60.37h-0.68c-0.5-2.86-1.85-5.29-4.03-7.27c-2.19-1.99-4.7-3.44-7.53-4.35
				c-2.84-0.91-5.49-1.37-7.95-1.37c-3.37,0-6.53,0.71-9.48,2.13c-2.95,1.42-5.51,3.42-7.65,6c-2.15,2.58-3.82,5.68-5.01,9.3
				c-1.19,3.62-1.79,7.55-1.79,11.79c0,4.11,0.58,7.92,1.73,11.43c1.15,3.51,2.84,6.56,5.05,9.14c2.21,2.58,4.78,4.54,7.69,5.86
				c2.91,1.33,6.15,1.99,9.7,1.99c2.97,0,6.23-0.6,9.78-1.81c3.55-1.21,6.76-3.21,9.62-6.02v2.27c-3.52,2.73-6.75,4.73-9.68,6
				c-2.93,1.27-6.58,1.91-10.95,1.91c-4.61,0-8.82-0.84-12.62-2.52c-3.8-1.68-7.02-3.95-9.64-6.82s-4.61-6.08-5.96-9.66
				c-1.35-3.58-2.03-7.26-2.03-11.05c0-5.7,1.4-10.99,4.21-15.88c2.81-4.89,6.61-8.76,11.41-11.61c4.8-2.85,10-4.27,15.62-4.27
				c3.47,0,7.17,0.52,11.09,1.55l4.13,1.15c0.79,0.16,1.47,0.24,2.03,0.24c1.03,0,1.72-0.15,2.07-0.46c0.34-0.3,0.61-0.85,0.79-1.65
				h0.64L21.26-60.37z"/>
		</g>
		<g>
			
				<linearGradient id="SVGID_00000090992766248858038670000006087167196415891634_" gradientUnits="userSpaceOnUse" x1="-30.1754" y1="-44.296" x2="21.8145" y2="-44.296">
				<stop  offset="0" style="stop-color:#A47B1D"/>
				<stop  offset="0.1257" style="stop-color:#D4A94E"/>
				<stop  offset="0.2654" style="stop-color:#FFEC95"/>
				<stop  offset="0.4274" style="stop-color:#E7BF69"/>
				<stop  offset="0.6061" style="stop-color:#FFD87D"/>
				<stop  offset="0.7961" style="stop-color:#B6903E"/>
				<stop  offset="1" style="stop-color:#966E14"/>
			</linearGradient>
			<path style="fill:url(#SVGID_00000090992766248858038670000006087167196415891634_);" d="M21.26-60.37h-0.68
				c-0.5-2.86-1.85-5.29-4.03-7.27c-2.19-1.99-4.7-3.44-7.53-4.35c-2.84-0.91-5.49-1.37-7.95-1.37c-3.37,0-6.53,0.71-9.48,2.13
				c-2.95,1.42-5.51,3.42-7.65,6c-2.15,2.58-3.82,5.68-5.01,9.3c-1.19,3.62-1.79,7.55-1.79,11.79c0,4.11,0.58,7.92,1.73,11.43
				c1.15,3.51,2.84,6.56,5.05,9.14c2.21,2.58,4.78,4.54,7.69,5.86c2.91,1.33,6.15,1.99,9.7,1.99c2.97,0,6.23-0.6,9.78-1.81
				c3.55-1.21,6.76-3.21,9.62-6.02v2.27c-3.52,2.73-6.75,4.73-9.68,6c-2.93,1.27-6.58,1.91-10.95,1.91c-4.61,0-8.82-0.84-12.62-2.52
				c-3.8-1.68-7.02-3.95-9.64-6.82s-4.61-6.08-5.96-9.66c-1.35-3.58-2.03-7.26-2.03-11.05c0-5.7,1.4-10.99,4.21-15.88
				c2.81-4.89,6.61-8.76,11.41-11.61c4.8-2.85,10-4.27,15.62-4.27c3.47,0,7.17,0.52,11.09,1.55l4.13,1.15
				c0.79,0.16,1.47,0.24,2.03,0.24c1.03,0,1.72-0.15,2.07-0.46c0.34-0.3,0.61-0.85,0.79-1.65h0.64L21.26-60.37z"/>
		</g>
	</g>
	<g>
		<g>
			
				<linearGradient id="SVGID_00000119088786525004603440000003705826755797859506_" gradientUnits="userSpaceOnUse" x1="35.5693" y1="-22.2874" x2="73.4091" y2="-22.2874" gradientTransform="matrix(1 0 0 1 -51.1753 -10.5335)">
				<stop  offset="0" style="stop-color:#414142"/>
				<stop  offset="0.1244" style="stop-color:#767981"/>
				<stop  offset="0.176" style="stop-color:#8E96A2"/>
				<stop  offset="0.3045" style="stop-color:#D1D2D4"/>
				<stop  offset="0.5" style="stop-color:#FFFFFF"/>
				<stop  offset="0.6453" style="stop-color:#414142"/>
				<stop  offset="0.6815" style="stop-color:#565557"/>
				<stop  offset="0.7583" style="stop-color:#939597"/>
				<stop  offset="0.8128" style="stop-color:#CCD1D5"/>
				<stop  offset="1" style="stop-color:#414142"/>
			</linearGradient>
			<path style="fill:url(#SVGID_00000119088786525004603440000003705826755797859506_);" d="M-15.61-58.24H9.55
				c4.37,0,7.58,0.84,9.62,2.52c2.04,1.68,3.06,3.88,3.06,6.58c0,4.32-2.01,8.41-6.02,12.26c-4.01,3.86-8.14,5.78-12.38,5.78
				c-0.93,0-1.89-0.13-2.9-0.38c-1.01-0.25-2.05-0.62-3.14-1.09v16.97c0,4.06,2.01,6.15,6.04,6.28v1.91h-19.44v-1.91
				c2.38-0.03,3.99-0.47,4.81-1.34c0.82-0.87,1.23-2.51,1.23-4.94v-34.46c0-2.57-0.45-4.25-1.35-5.03c-0.9-0.78-2.46-1.2-4.69-1.25
				V-58.24z M-2.21-53.78v15.89c1.7,1.27,3.31,2.23,4.83,2.87c1.52,0.64,2.95,0.96,4.27,0.96c2.49,0,4.36-0.84,5.6-2.51
				c1.25-1.67,1.87-4.18,1.87-7.53c0-3.45-0.8-6.35-2.4-8.7c-1.6-2.35-3.93-3.52-6.98-3.52C2.52-56.33,0.12-55.48-2.21-53.78z"/>
		</g>
	</g>
	<g>
		<g>
			<path class="st4" d="M18.04-78.67h5.52v-5.52h1.23v5.52h5.52v1.23h-5.52v5.52h-1.23v-5.52h-5.52V-78.67z"/>
		</g>
	</g>
</g>
<linearGradient id="SVGID_00000167364988794797872780000006728218097205040553_" gradientUnits="userSpaceOnUse" x1="18.7307" y1="73.1405" x2="26.2468" y2="69.6357">
	<stop  offset="0.0102" style="stop-color:#585656"/>
	<stop  offset="0.1442" style="stop-color:#595757"/>
	<stop  offset="0.2077" style="stop-color:#5C5A5A"/>
	<stop  offset="0.2564" style="stop-color:#625F5F"/>
	<stop  offset="0.2975" style="stop-color:#696666"/>
	<stop  offset="0.3339" style="stop-color:#716F6F"/>
	<stop  offset="0.3669" style="stop-color:#7A7979"/>
	<stop  offset="0.3967" style="stop-color:#838282"/>
	<stop  offset="0.4134" style="stop-color:#878787"/>
	<stop  offset="0.4767" style="stop-color:#828181"/>
	<stop  offset="0.5895" style="stop-color:#737171"/>
	<stop  offset="0.6732" style="stop-color:#676464"/>
	<stop  offset="0.7179" style="stop-color:#615F5F"/>
</linearGradient>
<path style="fill:url(#SVGID_00000167364988794797872780000006728218097205040553_);" d="M26.21,74.47c-2.32,0-4.55,0-6.86,0
	c0-2.16,0-4.29,0-6.43c2.24,0.5,4.52,1,6.86,1.52C26.21,71.15,26.21,72.8,26.21,74.47z"/>
<linearGradient id="SVGID_00000146501192236644606640000007330687570254074540_" gradientUnits="userSpaceOnUse" x1="77.7115" y1="70.1491" x2="84.9049" y2="70.1491">
	<stop  offset="0.0882" style="stop-color:#B68B2D"/>
	<stop  offset="0.1541" style="stop-color:#B88F37"/>
	<stop  offset="0.2702" style="stop-color:#BD9A52"/>
	<stop  offset="0.4215" style="stop-color:#C5AC7D"/>
	<stop  offset="0.5279" style="stop-color:#CBBBA0"/>
	<stop  offset="0.5493" style="stop-color:#CBB996"/>
	<stop  offset="0.617" style="stop-color:#CAB17A"/>
	<stop  offset="0.6875" style="stop-color:#C8AB64"/>
	<stop  offset="0.7608" style="stop-color:#C7A754"/>
	<stop  offset="0.839" style="stop-color:#C7A44A"/>
	<stop  offset="0.9305" style="stop-color:#C6A446"/>
</linearGradient>
<path style="fill:url(#SVGID_00000146501192236644606640000007330687570254074540_);" d="M77.71,72.47v-4.62
	c0-2.65,0.85-4.33,3.69-4.33c2.65,0,3.5,1.47,3.5,3.72v1.09h-2.27v-1.12c0-1.09-0.02-1.97-1.22-1.97c-1.21,0-1.33,0.93-1.33,2.11
	v5.61c0,1.41,0.29,2.08,1.33,2.08c1.17,0,1.22-0.91,1.22-2.06v-1.17h2.27v1.04c0,2.29-0.77,3.93-3.5,3.93
	C78.56,76.78,77.71,74.99,77.71,72.47z"/>
<path class="st7" d="M87.3,72.55v-4.86c0-2.62,0.96-4.17,3.74-4.17c2.77,0,3.72,1.55,3.72,4.17v4.86c0,2.61-0.96,4.24-3.72,4.24
	C88.25,76.78,87.3,75.17,87.3,72.55z M92.37,73.11v-5.96c0-1.09-0.18-1.9-1.33-1.9c-1.15,0-1.34,0.82-1.34,1.9v5.96
	c0,1.07,0.18,1.93,1.34,1.93C92.19,75.04,92.37,74.18,92.37,73.11z"/>
<path class="st7" d="M97.46,72.53l2.03-0.4c0.06,1.53,0.43,2.53,1.47,2.53c0.75,0,1.07-0.51,1.07-1.21c0-1.12-0.58-1.74-1.42-2.48
	l-1.63-1.42c-0.93-0.8-1.5-1.69-1.5-3.13c0-2.05,1.28-3.2,3.34-3.2c2.43,0,3.12,1.63,3.24,3.52l-2.03,0.35
	c-0.05-1.21-0.22-2.13-1.26-2.13c-0.7,0-1.09,0.53-1.09,1.22c0,0.88,0.37,1.36,1.06,1.95l1.61,1.42c1.05,0.91,1.93,2.05,1.93,3.76
	c0,1.87-1.31,3.18-3.24,3.18C98.67,76.48,97.55,75.11,97.46,72.53z"/>
<path class="st7" d="M106.63,63.36h5.44v1.66h-3.09v3.72h2.43v1.65h-2.43v4.3h3.12v1.61h-5.47V63.36z"/>
<path class="st7" d="M114.43,63.36h3.12c2.59,0,4.06,0.83,4.06,3.44c0,1.55-0.38,2.64-1.6,3.13l1.81,6.38h-2.37l-1.55-5.93h-1.12
	v5.93h-2.35V63.36z M117.54,68.91c1.36,0,1.85-0.59,1.85-1.98c0-1.31-0.37-1.95-1.73-1.95h-0.88v3.93H117.54z"/>
<linearGradient id="SVGID_00000159469443841398350870000010020559049331926672_" gradientUnits="userSpaceOnUse" x1="124.788" y1="70.1142" x2="131.6803" y2="68.3522">
	<stop  offset="0.0428" style="stop-color:#605E5D"/>
	<stop  offset="0.1162" style="stop-color:#716E6E"/>
	<stop  offset="0.3532" style="stop-color:#ABAAAA"/>
	<stop  offset="0.4687" style="stop-color:#C6C5C5"/>
	<stop  offset="0.565" style="stop-color:#AAA8A8"/>
	<stop  offset="0.7536" style="stop-color:#7F7D7D"/>
	<stop  offset="0.9053" style="stop-color:#686665"/>
	<stop  offset="1" style="stop-color:#605E5D"/>
</linearGradient>
<path style="fill:url(#SVGID_00000159469443841398350870000010020559049331926672_);" d="M124.72,63.36h3.8
	c2.32,0,3.31,1.34,3.31,3.68c0,2.54-1.37,3.52-3.47,3.52h-1.29v5.75h-2.35V63.36z M127.98,68.89c1.29,0,1.63-0.5,1.63-1.87
	c0-1.39-0.18-2-1.63-2h-0.91v3.87H127.98z"/>
<path class="st7" d="M134.1,63.36h2.35v11.33h3.15v1.61h-5.5V63.36z"/>
<path class="st7" d="M141.57,72.12v-8.76h2.3v9.03c0,1.23,0.14,2.33,1.34,2.33c1.22,0,1.36-1.1,1.36-2.33v-9.03h2.29v8.76
	c0,2.72-0.75,4.36-3.64,4.36C142.3,76.48,141.57,74.84,141.57,72.12z"/>
<path class="st7" d="M151.35,72.53l2.03-0.4c0.06,1.53,0.43,2.53,1.47,2.53c0.75,0,1.07-0.51,1.07-1.21c0-1.12-0.58-1.74-1.42-2.48
	l-1.63-1.42c-0.93-0.8-1.5-1.69-1.5-3.13c0-2.05,1.28-3.2,3.34-3.2c2.43,0,3.12,1.63,3.24,3.52l-2.03,0.35
	c-0.05-1.21-0.22-2.13-1.26-2.13c-0.7,0-1.09,0.53-1.09,1.22c0,0.88,0.37,1.36,1.06,1.95l1.61,1.42c1.05,0.91,1.93,2.05,1.93,3.76
	c0,1.87-1.31,3.18-3.24,3.18C152.57,76.48,151.45,75.11,151.35,72.53z"/>
<linearGradient id="SVGID_00000012435787137219040040000008631038369003393700_" gradientUnits="userSpaceOnUse" x1="21.7598" y1="24.1589" x2="60.056" y2="6.3011">
	<stop  offset="0" style="stop-color:#5B5B5A"/>
	<stop  offset="0.0915" style="stop-color:#636362"/>
	<stop  offset="0.235" style="stop-color:#787877"/>
	<stop  offset="0.4124" style="stop-color:#989898"/>
	<stop  offset="0.6153" style="stop-color:#C1C1C1"/>
	<stop  offset="0.6394" style="stop-color:#C6C6C6"/>
	<stop  offset="0.7845" style="stop-color:#767575"/>
	<stop  offset="0.8312" style="stop-color:#575756"/>
</linearGradient>
<path style="fill:url(#SVGID_00000012435787137219040040000008631038369003393700_);" d="M63.12,14.92
	c-0.36-3.01-1.39-5.78-3.38-8.12c-3.3-3.85-7.66-5.26-12.57-5.28c-8.94-0.03-17.88-0.01-26.81,0c-0.34,0-0.68,0.04-1.05,0.06v10.17
	c2.33-0.52,4.64-1.04,7.06-1.58V7.64c7.03,0,13.92-0.02,20.82,0.02c1.83,0.01,3.57,0.5,5.11,1.54c3.13,2.12,3.99,5.29,3.96,8.81
	c-0.05,5.05-2.38,8.4-6.64,9.49c-1.19,0.3-2.47,0.39-3.71,0.4c-6.12,0.04-12.24,0.02-18.35,0.02c-0.38,0-0.76-0.04-1.17-0.06
	l-0.02,6.19h1.1c6.19,0,12.39,0.02,18.58-0.01c1.33,0,2.67-0.04,3.99-0.23c5.02-0.71,9-3.07,11.4-7.67
	C63.29,22.61,63.59,18.8,63.12,14.92z"/>
<linearGradient id="SVGID_00000162329353802581112480000016918503685373760692_" gradientUnits="userSpaceOnUse" x1="2.4295" y1="40.3772" x2="45.1709" y2="40.3772">
	<stop  offset="0" style="stop-color:#B58A2D"/>
	<stop  offset="0.1372" style="stop-color:#B78D2F"/>
	<stop  offset="0.2331" style="stop-color:#BD9537"/>
	<stop  offset="0.3164" style="stop-color:#C8A446"/>
	<stop  offset="0.3925" style="stop-color:#D8BA5E"/>
	<stop  offset="0.463" style="stop-color:#EED87F"/>
	<stop  offset="0.4991" style="stop-color:#FCEB94"/>
	<stop  offset="0.8263" style="stop-color:#C7A446"/>
	<stop  offset="1" style="stop-color:#B18729"/>
</linearGradient>
<path style="fill:url(#SVGID_00000162329353802581112480000016918503685373760692_);" d="M26.37,61.04
	c-0.06,0.14-3.28-0.96-7.2-2.46c-6.83-4.71-9.64-11.18-9.43-19.07c0.19-7.24,3.14-13.03,9.43-17.22c0-1.43,3.23-2.59,7.22-2.59
	c6.75-0.92,12.91,0.42,18.75,4.31c0-2.25-0.04-4.28,0.03-6.31c0.02-0.83-0.29-1.24-1.01-1.61c-5.51-2.88-11.35-3.94-17.51-3.27
	c-9.35,1-16.37,5.6-20.96,13.82C2.9,31.62,2.18,37.05,2.5,42.66c0.35,6.32,2.55,11.92,6.79,16.63c5.33,5.95,12.14,8.69,20.03,8.84
	c5.26,0.11,10.28-0.98,14.91-3.54c0.38-0.21,0.86-0.68,0.87-1.05c0.08-2.18,0.04-4.36,0.04-6.76C39.31,60.63,33.11,62,26.37,61.04z"
	/>
<linearGradient id="SVGID_00000093156124299561283760000003972762878269005206_" gradientUnits="userSpaceOnUse" x1="13.1654" y1="45.6985" x2="33.9878" y2="35.9888">
	<stop  offset="0" style="stop-color:#585656"/>
	<stop  offset="0.1473" style="stop-color:#595858"/>
	<stop  offset="0.2377" style="stop-color:#5E5C5B"/>
	<stop  offset="0.3128" style="stop-color:#656262"/>
	<stop  offset="0.3794" style="stop-color:#6F6C6C"/>
	<stop  offset="0.4405" style="stop-color:#7B7979"/>
	<stop  offset="0.4974" style="stop-color:#898889"/>
	<stop  offset="0.5503" style="stop-color:#9A9999"/>
	<stop  offset="0.5605" style="stop-color:#9D9D9C"/>
	<stop  offset="0.5998" style="stop-color:#888787"/>
	<stop  offset="0.638" style="stop-color:#757373"/>
	<stop  offset="0.6726" style="stop-color:#676565"/>
	<stop  offset="0.7022" style="stop-color:#5E5C5C"/>
	<stop  offset="0.7235" style="stop-color:#5B5959"/>
	<stop  offset="0.7253" style="stop-color:#5B5959"/>
	<stop  offset="1" style="stop-color:#585656"/>
</linearGradient>
<path style="fill:url(#SVGID_00000093156124299561283760000003972762878269005206_);" d="M26.39,19.7v8.16l-0.02,6.19v26.99
	c-0.93-0.07-2.12-0.24-3.45-0.66c-1.61-0.51-2.87-1.21-3.75-1.8V22.29C19.17,20.86,22.4,19.7,26.39,19.7z"/>
<g>
	
		<linearGradient id="SVGID_00000065044005160673786530000007302464958049044622_" gradientUnits="userSpaceOnUse" x1="36.8922" y1="48.2598" x2="46.355" y2="43.8472">
		<stop  offset="0.0102" style="stop-color:#595758"/>
		<stop  offset="0.0589" style="stop-color:#5D5B5B"/>
		<stop  offset="0.1238" style="stop-color:#676464"/>
		<stop  offset="0.1977" style="stop-color:#777474"/>
		<stop  offset="0.2784" style="stop-color:#8E8C8C"/>
		<stop  offset="0.3637" style="stop-color:#ABABAB"/>
		<stop  offset="0.3831" style="stop-color:#B2B2B2"/>
		<stop  offset="0.3986" style="stop-color:#AFAFAF"/>
		<stop  offset="0.5789" style="stop-color:#8A8888"/>
		<stop  offset="0.7318" style="stop-color:#706E6D"/>
		<stop  offset="0.8498" style="stop-color:#605E5D"/>
		<stop  offset="0.9186" style="stop-color:#5A5958"/>
	</linearGradient>
	<path style="fill:url(#SVGID_00000065044005160673786530000007302464958049044622_);" d="M40.49,44.92v-3.41
		c0-0.3,0.11-0.55,0.33-0.77c0.22-0.21,0.49-0.32,0.81-0.32c0.3,0,0.55,0.11,0.77,0.32c0.21,0.21,0.32,0.47,0.32,0.77v3.41h3.41
		c0.31,0,0.57,0.11,0.8,0.32c0.22,0.22,0.34,0.48,0.34,0.79c0,0.31-0.11,0.57-0.34,0.79c-0.22,0.22-0.49,0.32-0.8,0.32h-3.38v3.41
		c0,0.32-0.11,0.59-0.34,0.81c-0.22,0.22-0.49,0.33-0.8,0.33c-0.31,0-0.57-0.11-0.79-0.33c-0.22-0.22-0.32-0.49-0.32-0.81v-3.41
		h-3.41c-0.3,0-0.56-0.11-0.78-0.32c-0.22-0.22-0.33-0.48-0.33-0.79c0-0.3,0.11-0.56,0.33-0.78c0.22-0.22,0.48-0.33,0.78-0.33H40.49
		z"/>
</g>
</svg>
